PathFileType	4	(X/Y/Z)	D:\TRACE\spot_10-12-23\spot_arm_body_motion_1_4-platform.trc
DataRate	CameraRate	NumFrames	NumMarkers	Units	OrigDataRate	OrigDataStartFrame	OrigNumFrames
100.00	100.00	      49	5	mm	100.00	1	      7000
Frame#	Time	Left_Front			Right_Front			Left_Aft			Right_Aft			Post			
		X1	Y1	Z1	X2	Y2	Z2	X3	Y3	Z3	X4	Y4	Z4	X5	Y5	Z5	

1	0.000	-760.30804	-20.09458	-658.29401	807.17047	-21.90789	-633.60840	-688.75372	31.84306	479.12814	721.25140	34.86489	578.78540	42.26444	697.00891	-1001.77142	
2	0.010	-760.32343	-20.08000	-658.29114	807.20453	-21.89474	-633.58154	-688.76172	31.86515	479.11584	721.24402	34.91912	578.81744	42.21898	697.04022	-1001.74744	
3	0.020	-760.30780	-20.12477	-658.30103	807.17957	-21.91284	-633.58270	-688.75659	31.88157	479.11414	721.26086	34.91428	578.80457	42.25003	697.00592	-1001.75891	
4	0.030	-760.32684	-20.12512	-658.28021	807.17883	-21.94728	-633.58533	-688.72388	31.84200	479.14459	721.26898	34.90524	578.79126	42.22236	696.98883	-1001.72852	
5	0.040	-760.33411	-20.16271	-658.29340	807.16364	-21.95468	-633.58691	-688.75940	31.83471	479.17422	721.24200	34.90615	578.81860	42.21948	696.98932	-1001.72296	
6	0.050	-760.34009	-20.13740	-658.28113	807.17346	-21.91796	-633.58435	-688.73798	31.87477	479.13354	721.20752	34.87133	578.78827	42.14542	696.98248	-1001.69446	
7	0.060	-760.30878	-20.08693	-658.29810	807.17438	-21.92442	-633.59027	-688.76117	31.85936	479.12534	721.25543	34.90103	578.82465	42.24451	696.99927	-1001.72046	
8	0.070	-760.28052	-20.11544	-658.28375	807.17676	-21.91966	-633.62061	-688.74579	31.85690	479.12592	721.26428	34.90689	578.81891	42.22189	697.02698	-1001.71875	
9	0.080	-760.30573	-20.09450	-658.25787	807.15863	-21.91350	-633.58630	-688.74744	31.84174	479.15659	721.24133	34.89888	578.81189	42.22070	697.01532	-1001.71881	
10	0.090	-760.34882	-20.10389	-658.26117	807.14819	-21.92817	-633.59045	-688.74872	31.85763	479.14185	721.23291	34.87341	578.83948	42.19438	697.01398	-1001.72534	
11	0.100	-760.23425	-20.17540	-658.37067	807.15125	-21.94248	-633.58881	-688.77502	31.83771	479.13419	721.27826	34.88093	578.66827	42.17918	697.02112	-1001.72302	
12	0.110	-760.32715	-20.16442	-658.29309	807.16913	-21.92367	-633.60498	-688.74792	31.88321	479.13507	721.23529	34.88857	578.79437	42.21747	697.01898	-1001.71063	
13	0.120	-760.26715	-20.15874	-658.31616	807.17279	-21.92825	-633.60327	-688.73071	31.89023	479.12537	721.23999	34.92714	578.82825	41.96277	696.96753	-1002.05841	
14	0.130	-760.23346	-20.16864	-658.39941	807.17841	-21.93879	-633.58551	-688.71289	31.85050	479.11584	721.24109	34.93038	578.80261	42.24920	696.98987	-1001.75165	
15	0.140	-760.32141	-20.13250	-658.27625	807.14862	-21.95870	-633.58032	-688.77057	31.84610	479.11649	721.24237	34.91389	578.82416	42.23326	696.97906	-1001.74329	
16	0.150	-760.35126	-20.11386	-658.25922	807.16888	-21.93055	-633.58124	-688.75848	31.85291	479.14932	721.24860	34.92789	578.68811	42.22457	696.98041	-1001.74133	
17	0.160	-760.28455	-20.12349	-658.31482	807.17670	-21.91639	-633.58185	-688.76331	31.85655	479.13260	721.23901	34.89392	578.81671	42.25628	696.99255	-1001.74884	
18	0.170	-760.30817	-20.10889	-658.28058	807.16797	-21.90132	-633.59174	-688.73138	31.85362	479.11142	721.24945	34.89671	578.79596	42.22993	697.01343	-1001.75018	
19	0.180	-760.24591	-20.11510	-658.31689	807.19171	-21.89762	-633.61237	-688.74731	31.89056	479.13715	721.24133	34.90237	578.80139	42.20234	697.03119	-1001.72229	
20	0.190	-760.27118	-20.13953	-658.26660	807.17780	-21.91445	-633.58435	-688.76575	31.84336	479.14621	721.26740	34.89186	578.80731	42.18394	697.03101	-1001.71368	
21	0.200	-760.33234	-20.12017	-658.27979	807.15192	-21.94671	-633.58459	-688.76990	31.86366	479.13113	721.26355	34.91044	578.81177	42.21212	697.00702	-1001.72723	
22	0.210	-760.38281	-20.11736	-658.27008	807.16040	-21.94716	-633.58728	-688.75421	31.83579	479.14203	721.25385	34.88299	578.82587	42.22894	696.99365	-1001.74133	
23	0.220	-760.31934	-20.10740	-658.27411	807.16730	-21.93348	-633.60150	-688.75415	31.86350	479.13416	721.27216	34.91108	578.82324	42.19139	697.00659	-1001.72540	
24	0.230	-760.29340	-20.08311	-658.28918	807.19891	-21.93160	-633.58490	-688.74670	31.86232	479.15237	721.25183	34.90281	578.81049	42.20933	697.02319	-1001.71619	
25	0.240	-760.29773	-20.15683	-658.31879	807.19043	-21.93345	-633.59735	-688.75513	31.87203	479.14597	721.29340	34.91992	578.82532	42.25519	696.99744	-1001.72736	
26	0.250	-760.31079	-20.11884	-658.29041	807.17426	-21.93257	-633.58728	-688.75500	31.86052	479.13852	721.25110	34.93390	578.63654	42.12735	696.99835	-1001.70093	
27	0.260	-760.31000	-20.12330	-658.30670	807.16260	-21.95438	-633.58038	-688.74048	31.83307	479.16061	721.25757	34.87776	578.83051	42.22008	697.00177	-1001.72656	
28	0.270	-760.32483	-20.13469	-658.31665	807.17065	-21.94575	-633.58600	-688.74207	31.86485	479.14749	721.25183	34.89351	578.85297	42.21179	697.02979	-1001.71735	
29	0.280	-760.30841	-20.12778	-658.30280	807.19574	-21.94066	-633.58215	-688.73163	31.84475	479.17270	721.23834	34.92792	578.82532	42.23940	697.00891	-1001.72290	
30	0.290	-760.25391	-20.09394	-658.30182	807.19580	-21.92142	-633.58990	-688.68115	31.83814	479.17313	721.24805	34.88810	578.80933	42.25977	697.01331	-1001.75189	
31	0.300	-760.31464	-20.08767	-658.25995	807.16632	-21.92247	-633.60724	-688.74365	31.84248	479.13815	721.24677	34.90835	578.81543	42.19463	697.00226	-1001.73761	
32	0.310	-760.24646	-20.22447	-658.41223	807.16931	-21.93163	-633.58759	-688.75623	31.85076	479.17038	721.25330	34.89483	578.64575	42.19630	696.99921	-1001.74969	
33	0.320	-760.31152	-20.12225	-658.27771	807.17743	-21.94166	-633.57343	-688.75275	31.85919	479.12885	721.25641	34.90123	578.79858	42.13655	696.97595	-1001.71002	
34	0.330	-760.30927	-20.12337	-658.30646	807.19135	-21.92859	-633.55713	-688.75842	31.86692	479.12244	721.27271	34.91329	578.62628	42.22728	697.00763	-1001.73041	
35	0.340	-760.29840	-20.11677	-658.28845	807.19232	-21.91098	-633.57721	-688.73352	31.83683	479.14853	721.28143	34.87579	578.79877	42.23483	697.00714	-1001.73230	
36	0.350	-760.29822	-20.10948	-658.28125	807.19482	-21.91417	-633.58331	-688.71155	31.85026	479.14206	721.25305	34.88543	578.83191	42.21998	697.02826	-1001.72290	
37	0.360	-760.37201	-20.10148	-658.24805	807.14099	-21.93673	-633.57727	-688.77338	31.86909	479.15082	721.27386	34.89295	578.83661	42.18742	697.02032	-1001.71320	
38	0.370	-760.30170	-20.10748	-658.28967	807.17084	-21.91847	-633.57178	-688.73047	31.83350	479.15134	721.27722	34.89251	578.60852	42.20879	697.01849	-1001.71771	
39	0.380	-760.28900	-20.11175	-658.30774	807.16992	-21.93043	-633.60077	-688.71271	31.84546	479.14883	721.24982	34.89824	578.78961	42.15422	697.02368	-1001.70917	
40	0.390	-760.29132	-20.10874	-658.31409	807.17218	-21.91891	-633.58490	-688.76483	31.86844	479.12650	721.27423	34.87188	578.62701	42.18800	697.02167	-1001.71301	
41	0.400	-760.30121	-20.09698	-658.27820	807.17078	-21.92229	-633.57581	-688.74872	31.84590	479.17133	721.23792	34.88839	578.77197	42.22716	697.01154	-1001.71179	
42	0.410	-760.28296	-20.11319	-658.28680	807.17609	-21.93763	-633.58929	-688.74097	31.83600	479.15601	721.24255	34.90252	578.83014	42.23750	696.98987	-1001.73419	
43	0.420	-760.29260	-20.12186	-658.26453	807.15509	-21.93267	-633.57727	-688.73926	31.83747	479.14664	721.21338	34.91817	578.82153	42.22326	696.99213	-1001.73163	
44	0.430	-760.30249	-20.13361	-658.29553	807.18359	-21.93872	-633.58069	-688.70959	31.82419	479.14316	721.24585	34.90577	578.79852	42.21709	696.97772	-1001.74414	
45	0.440	-760.30786	-20.10551	-658.30933	807.16571	-21.92871	-633.57819	-688.75311	31.85119	479.12067	721.26538	34.90152	578.81384	42.21455	696.99951	-1001.73639	
46	0.450	-760.31122	-20.10183	-658.29596	807.17053	-21.92645	-633.59937	-688.74219	31.85583	479.15912	721.24933	34.92768	578.79712	42.15007	696.99780	-1001.72626	
47	0.460	-760.30566	-20.10806	-658.27783	807.17047	-21.91213	-633.57648	-688.72803	31.84465	479.14813	721.25067	34.90042	578.81201	42.21422	697.00757	-1001.74854	
48	0.470	-760.20459	-20.17670	-658.39526	807.18616	-21.94303	-633.58270	-688.74329	31.83659	479.15634	721.25873	34.91490	578.82446	42.23448	696.99719	-1001.73767	
49	0.480	-760.23212	-20.18470	-658.39752	807.15405	-21.93487	-633.58154	-688.73480	31.83363	479.14139	721.24042	34.91343	578.82629	42.20397	696.99335	-1001.72650	
